<svg width="151" height="28" viewBox="0 0 151 28" fill="none" xmlns="http://www.w3.org/2000/svg">
<path d="M47.4978 20.3784H52.761V23.4834H43.48V6.97052H47.4978V20.3784Z" fill="white"/>
<path d="M60.6454 23.6716C59.3609 23.6716 58.2018 23.3972 57.168 22.8483C56.1498 22.2995 55.3431 21.5154 54.7479 20.496C54.1683 19.4767 53.8785 18.2849 53.8785 16.9206C53.8785 15.572 54.1761 14.388 54.7713 13.3687C55.3666 12.3337 56.1811 11.5418 57.2149 10.9929C58.2488 10.444 59.4079 10.1696 60.6924 10.1696C61.9768 10.1696 63.136 10.444 64.1698 10.9929C65.2036 11.5418 66.0182 12.3337 66.6134 13.3687C67.2086 14.388 67.5063 15.572 67.5063 16.9206C67.5063 18.2692 67.2008 19.4611 66.5899 20.496C65.9947 21.5154 65.1723 22.2995 64.1228 22.8483C63.089 23.3972 61.9298 23.6716 60.6454 23.6716ZM60.6454 20.1903C61.4129 20.1903 62.063 19.908 62.5956 19.3434C63.1438 18.7789 63.4179 17.9713 63.4179 16.9206C63.4179 15.8699 63.1516 15.0623 62.6191 14.4978C62.1021 13.9332 61.4599 13.651 60.6924 13.651C59.9092 13.651 59.2591 13.9332 58.7422 14.4978C58.2253 15.0466 57.9668 15.8542 57.9668 16.9206C57.9668 17.9713 58.2174 18.7789 58.7187 19.3434C59.2356 19.908 59.8778 20.1903 60.6454 20.1903Z" fill="white"/>
<path d="M68.8389 16.9206C68.8389 15.5563 69.113 14.3645 69.6613 13.3452C70.2252 12.3258 71.0006 11.5418 71.9874 10.9929C72.9899 10.444 74.1334 10.1696 75.4178 10.1696C77.0626 10.1696 78.4332 10.6009 79.5297 11.4633C80.6418 12.3258 81.3702 13.5412 81.7148 15.1094H77.4385C77.0782 14.1057 76.3812 13.6039 75.3474 13.6039C74.6111 13.6039 74.0237 13.894 73.5851 14.4742C73.1466 15.0388 72.9273 15.8542 72.9273 16.9206C72.9273 17.987 73.1466 18.8103 73.5851 19.3905C74.0237 19.955 74.6111 20.2373 75.3474 20.2373C76.3812 20.2373 77.0782 19.7355 77.4385 18.7318H81.7148C81.3702 20.2687 80.6418 21.4762 79.5297 22.3543C78.4175 23.2325 77.0469 23.6716 75.4178 23.6716C74.1334 23.6716 72.9899 23.3972 71.9874 22.8483C71.0006 22.2995 70.2252 21.5154 69.6613 20.496C69.113 19.4767 68.8389 18.2849 68.8389 16.9206Z" fill="white"/>
<path d="M83.0651 16.8971C83.0651 15.5485 83.3157 14.3645 83.817 13.3452C84.3339 12.3258 85.031 11.5418 85.9081 10.9929C86.7853 10.444 87.7643 10.1696 88.8452 10.1696C89.7693 10.1696 90.576 10.3578 91.2653 10.7341C91.9701 11.1105 92.5106 11.6045 92.8865 12.2161V10.3578H96.9043V23.4834H92.8865V21.6251C92.4949 22.2367 91.9467 22.7307 91.2418 23.1071C90.5525 23.4834 89.7458 23.6716 88.8217 23.6716C87.7565 23.6716 86.7853 23.3972 85.9081 22.8483C85.031 22.2838 84.3339 21.4918 83.817 20.4725C83.3157 19.4375 83.0651 18.2457 83.0651 16.8971ZM92.8865 16.9206C92.8865 15.917 92.6045 15.125 92.0406 14.5448C91.4924 13.9646 90.8188 13.6745 90.02 13.6745C89.2211 13.6745 88.5397 13.9646 87.9758 14.5448C87.4276 15.1094 87.1534 15.8934 87.1534 16.8971C87.1534 17.9007 87.4276 18.7005 87.9758 19.2964C88.5397 19.8766 89.2211 20.1667 90.02 20.1667C90.8188 20.1667 91.4924 19.8766 92.0406 19.2964C92.6045 18.7162 92.8865 17.9242 92.8865 16.9206Z" fill="white"/>
<path d="M103.829 6.07666V23.4834H99.8111V6.07666H103.829Z" fill="white"/>
<path d="M109.725 21.3193H115.246V23.4834H107.046V7.13518H109.725V21.3193Z" fill="white"/>
<path d="M123.102 23.6951C121.88 23.6951 120.776 23.4207 119.789 22.8718C118.802 22.3073 118.027 21.5232 117.463 20.5196C116.899 19.5003 116.617 18.3241 116.617 16.9912C116.617 15.6739 116.907 14.5056 117.486 13.4863C118.066 12.467 118.857 11.6829 119.859 11.134C120.862 10.5852 121.982 10.3107 123.219 10.3107C124.457 10.3107 125.577 10.5852 126.579 11.134C127.582 11.6829 128.373 12.467 128.952 13.4863C129.532 14.5056 129.822 15.6739 129.822 16.9912C129.822 18.3084 129.524 19.4767 128.929 20.496C128.334 21.5154 127.519 22.3073 126.485 22.8718C125.467 23.4207 124.339 23.6951 123.102 23.6951ZM123.102 21.3664C123.791 21.3664 124.433 21.2017 125.028 20.8724C125.639 20.5431 126.133 20.0491 126.509 19.3905C126.885 18.7318 127.073 17.9321 127.073 16.9912C127.073 16.0503 126.893 15.2583 126.532 14.6154C126.172 13.9568 125.694 13.4628 125.099 13.1335C124.504 12.8041 123.862 12.6395 123.172 12.6395C122.483 12.6395 121.841 12.8041 121.246 13.1335C120.666 13.4628 120.204 13.9568 119.859 14.6154C119.515 15.2583 119.342 16.0503 119.342 16.9912C119.342 18.3869 119.695 19.4689 120.4 20.2373C121.12 20.99 122.021 21.3664 123.102 21.3664Z" fill="white"/>
<path d="M135.148 6.07666V23.4834H132.47V6.07666H135.148Z" fill="white"/>
<path d="M144.28 23.6951C143.059 23.6951 141.954 23.4207 140.968 22.8718C139.981 22.3073 139.205 21.5232 138.641 20.5196C138.077 19.5003 137.796 18.3241 137.796 16.9912C137.796 15.6739 138.085 14.5056 138.665 13.4863C139.244 12.467 140.035 11.6829 141.038 11.134C142.041 10.5852 143.16 10.3107 144.398 10.3107C145.635 10.3107 146.755 10.5852 147.758 11.134C148.76 11.6829 149.551 12.467 150.131 13.4863C150.711 14.5056 151 15.6739 151 16.9912C151 18.3084 150.703 19.4767 150.108 20.496C149.512 21.5154 148.698 22.3073 147.664 22.8718C146.646 23.4207 145.518 23.6951 144.28 23.6951ZM144.28 21.3664C144.97 21.3664 145.612 21.2017 146.207 20.8724C146.818 20.5431 147.311 20.0491 147.687 19.3905C148.063 18.7318 148.251 17.9321 148.251 16.9912C148.251 16.0503 148.071 15.2583 147.711 14.6154C147.351 13.9568 146.873 13.4628 146.278 13.1335C145.682 12.8041 145.04 12.6395 144.351 12.6395C143.662 12.6395 143.02 12.8041 142.424 13.1335C141.845 13.4628 141.383 13.9568 141.038 14.6154C140.693 15.2583 140.521 16.0503 140.521 16.9912C140.521 18.3869 140.874 19.4689 141.578 20.2373C142.299 20.99 143.2 21.3664 144.28 21.3664Z" fill="white"/>
<path d="M13.299 24.0582H6.38379V27.6319C6.38379 27.9189 6.69766 28.0952 6.94229 27.9456L13.299 24.0582Z" fill="#F6E009"/>
<path d="M32.9806 8.49722C32.9806 6.87332 31.6657 5.55688 30.0436 5.55688H9.32081C7.69874 5.55688 6.38379 6.87331 6.38379 8.49722V24.0582H13.299H30.0436C31.6657 24.0582 32.9806 22.7418 32.9806 21.1179V8.49722Z" fill="#F6E009"/>
<path d="M6.91517 18.5013H0V22.075C0 22.362 0.313867 22.5383 0.558505 22.3887L6.91517 18.5013Z" fill="white"/>
<path d="M26.5968 2.94033C26.5968 1.31643 25.2819 0 23.6598 0H2.93702C1.31495 0 0 1.31643 0 2.94033V18.5013H6.91517H23.6598C25.2819 18.5013 26.5968 17.1849 26.5968 15.561V2.94033Z" fill="white"/>
<path d="M17.2515 8.66809C17.741 8.95103 17.741 9.65836 17.2515 9.9413L11.8726 13.0503C11.3831 13.3333 10.7712 12.9796 10.7712 12.4137L10.7712 6.19565C10.7712 5.62979 11.3831 5.27612 11.8726 5.55905L17.2515 8.66809Z" fill="#1C1913"/>
</svg>
